<?xml version="1.0" encoding="UTF-8"?>
<!DOCTYPE svg PUBLIC "-//W3C//DTD SVG 1.1//EN" "http://www.w3.org/Graphics/SVG/1.1/DTD/svg11.dtd">
<svg xmlns="http://www.w3.org/2000/svg" version="1.1" width="15px" height="26px" style="shape-rendering:geometricPrecision; text-rendering:geometricPrecision; image-rendering:optimizeQuality; fill-rule:evenodd; clip-rule:evenodd" xmlns:xlink="http://www.w3.org/1999/xlink">
<g><path style="opacity:0.851" fill="#fefffe" d="M 6.5,-0.5 C 9.16667,-0.5 11.8333,-0.5 14.5,-0.5C 14.5,1.16667 14.5,2.83333 14.5,4.5C 12.8333,4.5 11.1667,4.5 9.5,4.5C 9.5,5.83333 9.5,7.16667 9.5,8.5C 11.1667,8.5 12.8333,8.5 14.5,8.5C 14.5,10.5 14.5,12.5 14.5,14.5C 12.8333,14.5 11.1667,14.5 9.5,14.5C 9.5,18.1667 9.5,21.8333 9.5,25.5C 7.5,25.5 5.5,25.5 3.5,25.5C 3.5,21.8333 3.5,18.1667 3.5,14.5C 2.16667,14.5 0.833333,14.5 -0.5,14.5C -0.5,12.5 -0.5,10.5 -0.5,8.5C 0.833333,8.5 2.16667,8.5 3.5,8.5C 3.12892,4.99661 4.12892,1.99661 6.5,-0.5 Z"/></g>
</svg>
