<?xml version="1.0" encoding="UTF-8"?>
<!DOCTYPE svg PUBLIC "-//W3C//DTD SVG 1.1//EN" "http://www.w3.org/Graphics/SVG/1.1/DTD/svg11.dtd">
<svg xmlns="http://www.w3.org/2000/svg" version="1.1" width="26px" height="27px" style="shape-rendering:geometricPrecision; text-rendering:geometricPrecision; image-rendering:optimizeQuality; fill-rule:evenodd; clip-rule:evenodd" xmlns:xlink="http://www.w3.org/1999/xlink">
<g><path style="opacity:0.819" fill="#fefffe" d="M 2.5,-0.5 C 9.5,-0.5 16.5,-0.5 23.5,-0.5C 23.8333,0.5 24.5,1.16667 25.5,1.5C 25.5,9.16667 25.5,16.8333 25.5,24.5C 24.5,24.8333 23.8333,25.5 23.5,26.5C 16.1667,26.5 8.83333,26.5 1.5,26.5C 1.16667,25.5 0.5,24.8333 -0.5,24.5C -0.5,17.1667 -0.5,9.83333 -0.5,2.5C 0.833333,1.83333 1.83333,0.833333 2.5,-0.5 Z M 18.5,3.5 C 19.8333,3.5 21.1667,3.5 22.5,3.5C 22.5,4.83333 22.5,6.16667 22.5,7.5C 21.1667,7.5 19.8333,7.5 18.5,7.5C 18.5,6.16667 18.5,4.83333 18.5,3.5 Z M 10.5,9.5 C 16.704,9.3137 18.0374,11.8137 14.5,17C 8.39204,17.0781 7.05871,14.5781 10.5,9.5 Z M 2.5,11.5 C 4.94185,11.1192 5.60851,11.7859 4.5,13.5C 8.27475,22.3779 13.4414,23.3779 20,16.5C 20.2022,14.7444 20.7022,13.0777 21.5,11.5C 22.6586,15.122 22.8253,18.7887 22,22.5C 15.9156,23.642 9.74889,23.8087 3.5,23C 2.53986,19.27 2.20653,15.4367 2.5,11.5 Z"/></g>
</svg>
