<?xml version="1.0" encoding="UTF-8"?>
<!DOCTYPE svg PUBLIC "-//W3C//DTD SVG 1.1//EN" "http://www.w3.org/Graphics/SVG/1.1/DTD/svg11.dtd">
<svg xmlns="http://www.w3.org/2000/svg" version="1.1" width="21px" height="27px" style="shape-rendering:geometricPrecision; text-rendering:geometricPrecision; image-rendering:optimizeQuality; fill-rule:evenodd; clip-rule:evenodd" xmlns:xlink="http://www.w3.org/1999/xlink">
<g><path style="opacity:0.741" fill="#fefffe" d="M 6.5,-0.5 C 9.16667,-0.5 11.8333,-0.5 14.5,-0.5C 16.4752,1.13696 18.4752,2.80363 20.5,4.5C 20.5,7.5 20.5,10.5 20.5,13.5C 19.0686,15.437 17.4019,17.2703 15.5,19C 13.2305,19.7581 11.0639,19.5914 9,18.5C 8.0936,21.3098 6.92694,23.9764 5.5,26.5C 4.83333,26.5 4.16667,26.5 3.5,26.5C 3.55241,22.8019 3.88575,19.1352 4.5,15.5C 2.4862,15.6085 0.819534,14.9418 -0.5,13.5C -0.5,10.8333 -0.5,8.16667 -0.5,5.5C 1.85847,3.47073 4.1918,1.47073 6.5,-0.5 Z M 4.5,15.5 C 1.46454,6.71488 4.46454,2.88155 13.5,4C 15.757,7.23767 16.0904,10.7377 14.5,14.5C 12.8333,15.8333 11.1667,15.8333 9.5,14.5C 10.2431,12.3622 10.9097,10.1956 11.5,8C 10.3132,5.41034 8.47982,4.91034 6,6.5C 5.81948,9.69464 5.31948,12.6946 4.5,15.5 Z"/></g>
</svg>
